<svg xmlns="http://www.w3.org/2000/svg" xmlns:xlink="http://www.w3.org/1999/xlink" width="500" zoomAndPan="magnify" viewBox="0 0 375 374.999991" height="500" preserveAspectRatio="xMidYMid meet" version="1.0"><defs><g/><clipPath id="32d43c7ac4"><path d="M 106.519531 89.0625 L 183.769531 89.0625 L 183.769531 196.3125 L 106.519531 196.3125 Z M 106.519531 89.0625 " clip-rule="nonzero"/></clipPath><clipPath id="a9430b1eaa"><path d="M 83 94 L 144 94 L 144 154.871094 L 83 154.871094 Z M 83 94 " clip-rule="nonzero"/></clipPath><clipPath id="37eaa086ba"><path d="M 82.972656 93.371094 L 144.472656 93.371094 L 144.472656 154.871094 L 82.972656 154.871094 Z M 82.972656 93.371094 " clip-rule="nonzero"/></clipPath></defs><g clip-path="url(#32d43c7ac4)"><path fill="#000000" d="M 183.710938 119.636719 C 183.757812 136.574219 169.957031 150.371094 152.992188 150.371094 L 136.257812 150.371094 C 129 150.371094 123.117188 156.242188 123.117188 163.480469 L 123.117188 180.355469 L 107.128906 196.3125 L 107.128906 167.609375 C 107.128906 149.277344 122.019531 134.414062 140.394531 134.414062 L 152.996094 134.414062 C 161.09375 134.414062 167.691406 127.855469 167.726562 119.777344 C 167.757812 111.660156 161.035156 105.019531 152.898438 105.019531 L 122.523438 105.019531 L 106.53125 89.0625 L 152.847656 89.0625 C 169.804688 89.0625 183.667969 102.714844 183.710938 119.636719 Z M 183.710938 119.636719 " fill-opacity="1" fill-rule="nonzero"/></g><g clip-path="url(#a9430b1eaa)"><path fill="#000000" d="M 113.78125 154.183594 C 97.226562 154.183594 83.761719 140.71875 83.761719 124.167969 L 83.761719 94.175781 L 96.398438 94.175781 L 96.398438 124.167969 C 96.398438 133.75 104.199219 141.546875 113.78125 141.546875 C 123.363281 141.546875 131.160156 133.75 131.160156 124.167969 L 131.160156 94.175781 L 143.800781 94.175781 L 143.800781 124.167969 C 143.800781 140.71875 130.332031 154.183594 113.78125 154.183594 " fill-opacity="1" fill-rule="nonzero"/></g><g clip-path="url(#37eaa086ba)"><path fill="#000000" d="M 84.550781 94.964844 L 84.550781 124.167969 C 84.550781 140.285156 97.664062 153.394531 113.78125 153.394531 C 129.898438 153.394531 143.011719 140.285156 143.011719 124.167969 L 143.011719 94.964844 L 131.949219 94.964844 L 131.949219 124.167969 C 131.949219 134.1875 123.800781 142.335938 113.78125 142.335938 C 103.761719 142.335938 95.609375 134.1875 95.609375 124.167969 L 95.609375 94.964844 Z M 113.78125 154.976562 C 96.792969 154.976562 82.972656 141.15625 82.972656 124.167969 L 82.972656 93.386719 L 97.191406 93.386719 L 97.191406 124.167969 C 97.191406 133.316406 104.632812 140.757812 113.78125 140.757812 C 122.925781 140.757812 130.367188 133.316406 130.367188 124.167969 L 130.367188 93.386719 L 144.589844 93.386719 L 144.589844 124.167969 C 144.589844 141.15625 130.769531 154.976562 113.78125 154.976562 " fill-opacity="1" fill-rule="nonzero"/></g><g fill="#000000" fill-opacity="1"><g transform="translate(187.499992, 121.834833)"><g><path d="M 7.171875 -21.0625 C 9.566406 -21.0625 11.320312 -20.546875 12.4375 -19.515625 C 13.550781 -18.492188 14.109375 -16.957031 14.109375 -14.90625 C 14.109375 -13.914062 13.972656 -13.015625 13.703125 -12.203125 C 13.429688 -11.390625 13.003906 -10.691406 12.421875 -10.109375 C 11.835938 -9.523438 11.085938 -9.070312 10.171875 -8.75 C 9.265625 -8.4375 8.175781 -8.28125 6.90625 -8.28125 L 4.890625 -8.28125 L 4.890625 0 L 2.53125 0 L 2.53125 -21.0625 Z M 7.015625 -19.015625 L 4.890625 -19.015625 L 4.890625 -10.359375 L 6.65625 -10.359375 C 7.800781 -10.359375 8.742188 -10.503906 9.484375 -10.796875 C 10.222656 -11.097656 10.769531 -11.578125 11.125 -12.234375 C 11.488281 -12.890625 11.671875 -13.757812 11.671875 -14.84375 C 11.671875 -16.289062 11.289062 -17.347656 10.53125 -18.015625 C 9.78125 -18.679688 8.609375 -19.015625 7.015625 -19.015625 Z M 7.015625 -19.015625 "/></g></g></g><g fill="#000000" fill-opacity="1"><g transform="translate(202.824134, 121.834833)"><g><path d="M 13.9375 -7.921875 C 13.9375 -6.648438 13.800781 -5.507812 13.53125 -4.5 C 13.257812 -3.488281 12.859375 -2.625 12.328125 -1.90625 C 11.796875 -1.195312 11.132812 -0.65625 10.34375 -0.28125 C 9.5625 0.09375 8.664062 0.28125 7.65625 0.28125 C 6.6875 0.28125 5.820312 0.09375 5.0625 -0.28125 C 4.300781 -0.65625 3.648438 -1.195312 3.109375 -1.90625 C 2.578125 -2.613281 2.164062 -3.472656 1.875 -4.484375 C 1.59375 -5.503906 1.453125 -6.648438 1.453125 -7.921875 C 1.453125 -9.660156 1.691406 -11.132812 2.171875 -12.34375 C 2.648438 -13.5625 3.351562 -14.488281 4.28125 -15.125 C 5.21875 -15.769531 6.363281 -16.09375 7.71875 -16.09375 C 9.007812 -16.09375 10.117188 -15.773438 11.046875 -15.140625 C 11.972656 -14.515625 12.6875 -13.59375 13.1875 -12.375 C 13.6875 -11.164062 13.9375 -9.679688 13.9375 -7.921875 Z M 3.8125 -7.921875 C 3.8125 -6.609375 3.945312 -5.484375 4.21875 -4.546875 C 4.5 -3.617188 4.925781 -2.910156 5.5 -2.421875 C 6.070312 -1.929688 6.804688 -1.6875 7.703125 -1.6875 C 8.597656 -1.6875 9.332031 -1.925781 9.90625 -2.40625 C 10.476562 -2.894531 10.898438 -3.601562 11.171875 -4.53125 C 11.441406 -5.457031 11.578125 -6.585938 11.578125 -7.921875 C 11.578125 -9.234375 11.441406 -10.347656 11.171875 -11.265625 C 10.898438 -12.191406 10.476562 -12.894531 9.90625 -13.375 C 9.332031 -13.863281 8.59375 -14.109375 7.6875 -14.109375 C 6.34375 -14.109375 5.359375 -13.578125 4.734375 -12.515625 C 4.117188 -11.453125 3.8125 -9.921875 3.8125 -7.921875 Z M 3.8125 -7.921875 "/></g></g></g><g fill="#000000" fill-opacity="1"><g transform="translate(218.191488, 121.834833)"><g><path d="M 10.84375 -4.25 C 10.84375 -3.269531 10.628906 -2.441406 10.203125 -1.765625 C 9.785156 -1.085938 9.175781 -0.578125 8.375 -0.234375 C 7.582031 0.109375 6.625 0.28125 5.5 0.28125 C 4.59375 0.28125 3.785156 0.191406 3.078125 0.015625 C 2.367188 -0.148438 1.753906 -0.367188 1.234375 -0.640625 L 1.234375 -2.90625 C 1.773438 -2.570312 2.425781 -2.285156 3.1875 -2.046875 C 3.945312 -1.804688 4.71875 -1.6875 5.5 -1.6875 C 6.550781 -1.6875 7.328125 -1.898438 7.828125 -2.328125 C 8.335938 -2.765625 8.59375 -3.363281 8.59375 -4.125 C 8.59375 -4.5625 8.488281 -4.945312 8.28125 -5.28125 C 8.082031 -5.613281 7.75 -5.929688 7.28125 -6.234375 C 6.8125 -6.546875 6.175781 -6.878906 5.375 -7.234375 C 4.550781 -7.628906 3.828125 -8.023438 3.203125 -8.421875 C 2.585938 -8.828125 2.109375 -9.304688 1.765625 -9.859375 C 1.421875 -10.421875 1.25 -11.117188 1.25 -11.953125 C 1.25 -13.242188 1.71875 -14.253906 2.65625 -14.984375 C 3.601562 -15.722656 4.84375 -16.09375 6.375 -16.09375 C 7.1875 -16.09375 7.945312 -16.003906 8.65625 -15.828125 C 9.363281 -15.648438 10.03125 -15.394531 10.65625 -15.0625 L 9.84375 -13.21875 C 9.3125 -13.5 8.75 -13.726562 8.15625 -13.90625 C 7.5625 -14.082031 6.953125 -14.171875 6.328125 -14.171875 C 5.421875 -14.171875 4.71875 -13.976562 4.21875 -13.59375 C 3.71875 -13.21875 3.46875 -12.707031 3.46875 -12.0625 C 3.46875 -11.59375 3.578125 -11.203125 3.796875 -10.890625 C 4.015625 -10.578125 4.367188 -10.273438 4.859375 -9.984375 C 5.347656 -9.691406 5.992188 -9.359375 6.796875 -8.984375 C 7.609375 -8.585938 8.320312 -8.1875 8.9375 -7.78125 C 9.550781 -7.375 10.019531 -6.894531 10.34375 -6.34375 C 10.675781 -5.789062 10.84375 -5.09375 10.84375 -4.25 Z M 10.84375 -4.25 "/></g></g></g><g fill="#000000" fill-opacity="1"><g transform="translate(230.174275, 121.834833)"><g><path d="M 6.640625 -1.671875 C 6.953125 -1.671875 7.269531 -1.703125 7.59375 -1.765625 C 7.925781 -1.828125 8.210938 -1.90625 8.453125 -2 L 8.453125 -0.15625 C 8.160156 -0.03125 7.800781 0.0703125 7.375 0.15625 C 6.957031 0.238281 6.53125 0.28125 6.09375 0.28125 C 5.332031 0.28125 4.671875 0.128906 4.109375 -0.171875 C 3.546875 -0.472656 3.109375 -0.945312 2.796875 -1.59375 C 2.492188 -2.25 2.34375 -3.117188 2.34375 -4.203125 L 2.34375 -13.9375 L 0.484375 -13.9375 L 0.484375 -15.125 L 2.40625 -15.890625 L 3.1875 -19.4375 L 4.671875 -19.4375 L 4.671875 -15.796875 L 8.3125 -15.796875 L 8.3125 -13.9375 L 4.671875 -13.9375 L 4.671875 -4.359375 C 4.671875 -3.460938 4.832031 -2.789062 5.15625 -2.34375 C 5.476562 -1.894531 5.972656 -1.671875 6.640625 -1.671875 Z M 6.640625 -1.671875 "/></g></g></g><g fill="#000000" fill-opacity="1"><g transform="translate(239.175774, 121.834833)"><g><path d="M 7.453125 -16.078125 C 8.660156 -16.078125 9.675781 -15.769531 10.5 -15.15625 C 11.320312 -14.550781 11.945312 -13.71875 12.375 -12.65625 C 12.800781 -11.59375 13.015625 -10.378906 13.015625 -9.015625 L 13.015625 -7.484375 L 3.796875 -7.484375 C 3.816406 -5.578125 4.195312 -4.132812 4.9375 -3.15625 C 5.6875 -2.175781 6.765625 -1.6875 8.171875 -1.6875 C 8.953125 -1.6875 9.671875 -1.773438 10.328125 -1.953125 C 10.992188 -2.128906 11.675781 -2.398438 12.375 -2.765625 L 12.375 -0.71875 C 11.695312 -0.375 11.015625 -0.125 10.328125 0.03125 C 9.648438 0.195312 8.875 0.28125 8 0.28125 C 6.582031 0.28125 5.382812 -0.046875 4.40625 -0.703125 C 3.4375 -1.367188 2.703125 -2.304688 2.203125 -3.515625 C 1.710938 -4.734375 1.46875 -6.164062 1.46875 -7.8125 C 1.46875 -9.539062 1.703125 -11.019531 2.171875 -12.25 C 2.640625 -13.488281 3.320312 -14.4375 4.21875 -15.09375 C 5.113281 -15.75 6.191406 -16.078125 7.453125 -16.078125 Z M 7.4375 -14.1875 C 6.375 -14.1875 5.535156 -13.773438 4.921875 -12.953125 C 4.304688 -12.128906 3.941406 -10.921875 3.828125 -9.328125 L 10.734375 -9.328125 C 10.722656 -10.242188 10.597656 -11.066406 10.359375 -11.796875 C 10.128906 -12.535156 9.773438 -13.117188 9.296875 -13.546875 C 8.816406 -13.972656 8.195312 -14.1875 7.4375 -14.1875 Z M 7.4375 -14.1875 "/></g></g></g><g fill="#000000" fill-opacity="1"><g transform="translate(253.563765, 121.834833)"><g><path d="M 8.453125 -16.09375 C 8.722656 -16.09375 9 -16.070312 9.28125 -16.03125 C 9.5625 -16 9.832031 -15.953125 10.09375 -15.890625 L 9.765625 -13.640625 C 9.554688 -13.703125 9.320312 -13.75 9.0625 -13.78125 C 8.8125 -13.820312 8.5625 -13.84375 8.3125 -13.84375 C 7.769531 -13.84375 7.269531 -13.707031 6.8125 -13.4375 C 6.351562 -13.164062 5.953125 -12.785156 5.609375 -12.296875 C 5.265625 -11.804688 5 -11.222656 4.8125 -10.546875 C 4.625 -9.878906 4.53125 -9.148438 4.53125 -8.359375 L 4.53125 0 L 2.234375 0 L 2.234375 -15.796875 L 4.09375 -15.796875 L 4.359375 -12.953125 L 4.5 -12.953125 C 4.757812 -13.546875 5.078125 -14.078125 5.453125 -14.546875 C 5.835938 -15.015625 6.28125 -15.390625 6.78125 -15.671875 C 7.28125 -15.953125 7.835938 -16.09375 8.453125 -16.09375 Z M 8.453125 -16.09375 "/></g></g></g><g fill="#000000" fill-opacity="1"><g transform="translate(187.499992, 152.584831)"><g><path d="M 16.0625 -21.0625 L 16.0625 -7.015625 C 16.0625 -5.472656 15.800781 -4.15625 15.28125 -3.0625 C 14.757812 -1.96875 13.988281 -1.132812 12.96875 -0.5625 C 11.957031 0 10.6875 0.28125 9.15625 0.28125 C 6.925781 0.28125 5.226562 -0.347656 4.0625 -1.609375 C 2.90625 -2.867188 2.328125 -4.675781 2.328125 -7.03125 L 2.328125 -21.0625 L 4.703125 -21.0625 L 4.703125 -6.984375 C 4.703125 -5.242188 5.085938 -3.945312 5.859375 -3.09375 C 6.628906 -2.238281 7.753906 -1.8125 9.234375 -1.8125 C 10.242188 -1.8125 11.070312 -2.007812 11.71875 -2.40625 C 12.375 -2.800781 12.863281 -3.378906 13.1875 -4.140625 C 13.519531 -4.910156 13.6875 -5.863281 13.6875 -7 L 13.6875 -21.0625 Z M 16.0625 -21.0625 "/></g></g></g><g fill="#000000" fill-opacity="1"><g transform="translate(205.891848, 152.584831)"><g><path d="M 10.78125 0 L 4.703125 -18.265625 L 4.578125 -18.265625 C 4.617188 -17.742188 4.648438 -17.210938 4.671875 -16.671875 C 4.691406 -16.140625 4.707031 -15.609375 4.71875 -15.078125 C 4.738281 -14.554688 4.75 -14.066406 4.75 -13.609375 L 4.75 0 L 2.53125 0 L 2.53125 -21.0625 L 5.96875 -21.0625 L 11.8125 -3.546875 L 11.90625 -3.546875 L 17.8125 -21.0625 L 21.265625 -21.0625 L 21.265625 0 L 18.921875 0 L 18.921875 -13.671875 C 18.921875 -14.109375 18.925781 -14.578125 18.9375 -15.078125 C 18.957031 -15.585938 18.976562 -16.109375 19 -16.640625 C 19.03125 -17.179688 19.054688 -17.71875 19.078125 -18.25 L 18.96875 -18.25 L 12.828125 0 Z M 10.78125 0 "/></g></g></g><g fill="#000000" fill-opacity="1"><g transform="translate(229.641392, 152.584831)"><g><path d="M 15.578125 0 L 12.84375 0 L 6.78125 -10.0625 L 4.890625 -8.125 L 4.890625 0 L 2.53125 0 L 2.53125 -21.0625 L 4.890625 -21.0625 L 4.890625 -10.46875 C 5.234375 -10.925781 5.613281 -11.429688 6.03125 -11.984375 C 6.457031 -12.546875 6.914062 -13.171875 7.40625 -13.859375 L 12.609375 -21.0625 L 15.28125 -21.0625 L 8.453125 -11.84375 Z M 15.578125 0 "/></g></g></g><g fill="#000000" fill-opacity="1"><g transform="translate(245.15277, 152.584831)"><g><path d="M 10.78125 0 L 4.703125 -18.265625 L 4.578125 -18.265625 C 4.617188 -17.742188 4.648438 -17.210938 4.671875 -16.671875 C 4.691406 -16.140625 4.707031 -15.609375 4.71875 -15.078125 C 4.738281 -14.554688 4.75 -14.066406 4.75 -13.609375 L 4.75 0 L 2.53125 0 L 2.53125 -21.0625 L 5.96875 -21.0625 L 11.8125 -3.546875 L 11.90625 -3.546875 L 17.8125 -21.0625 L 21.265625 -21.0625 L 21.265625 0 L 18.921875 0 L 18.921875 -13.671875 C 18.921875 -14.109375 18.925781 -14.578125 18.9375 -15.078125 C 18.957031 -15.585938 18.976562 -16.109375 19 -16.640625 C 19.03125 -17.179688 19.054688 -17.71875 19.078125 -18.25 L 18.96875 -18.25 L 12.828125 0 Z M 10.78125 0 "/></g></g></g></svg>